<?xml version="1.0" encoding="utf-8"?>
<!-- Generator: Adobe Illustrator 21.1.0, SVG Export Plug-In . SVG Version: 6.00 Build 0)  -->
<svg version="1.1" id="Layer_1" xmlns="http://www.w3.org/2000/svg" xmlns:xlink="http://www.w3.org/1999/xlink" x="0px" y="0px"
	 viewBox="0 0 118 19" style="enable-background:new 0 0 118 19;" xml:space="preserve">
<style type="text/css">
	.st0{fill:url(#SVGID_1_);}
	.st1{fill:url(#SVGID_2_);}
	.st2{fill:none;}
	.st3{fill:#1E59C1;}
	.st4{font-family:'RobotoMono-Regular';}
	.st5{font-size:16px;}
	.st6{letter-spacing:1;}
</style>
<title>logo</title>
<desc>Created with Sketch.</desc>
<linearGradient id="SVGID_1_" gradientUnits="userSpaceOnUse" x1="5.6968" y1="13.6549" x2="22.0059" y2="5.3451">
	<stop  offset="0" style="stop-color:#2F66EB"/>
	<stop  offset="0.2707" style="stop-color:#2F61DA"/>
	<stop  offset="0.9944" style="stop-color:#2F55AF"/>
</linearGradient>
<ellipse class="st0" cx="13.9" cy="9.5" rx="9.1" ry="9.5"/>
<linearGradient id="SVGID_2_" gradientUnits="userSpaceOnUse" x1="6.7816" y1="3.2017" x2="21.2535" y2="22.4066">
	<stop  offset="0" style="stop-color:#4C90BA;stop-opacity:0"/>
	<stop  offset="4.548359e-02" style="stop-color:#4894B9;stop-opacity:3.866105e-02"/>
	<stop  offset="0.2702" style="stop-color:#3AA2B3;stop-opacity:0.2296"/>
	<stop  offset="0.5434" style="stop-color:#32AAB0;stop-opacity:0.4619"/>
	<stop  offset="1" style="stop-color:#2FACAF;stop-opacity:0.85"/>
</linearGradient>
<path class="st1" d="M25.8,19c-4,0-8,0-12,0c-0.9,0-2.5-0.1-4.2-1.1c-0.4-0.2-1.6-0.9-2.8-2.4c-1.2-1.5-1.6-2.9-1.7-3.4
	c-0.3-1.1-0.4-2-0.4-2.6C4.8,8.6,5,6.8,6,4.8c0.6-1.1,1.4-2.1,2.8-3.1c0,0-1.1,3.4-0.4,5.5s2.1,4.4,4.9,4.6c2.7,0.1,5.5,0,5.5,0
	S25.7,11.7,25.8,19z"/>
<rect x="28.7" y="3.1" class="st2" width="90.3" height="19"/>
<text transform="matrix(1 0 0 1 28.7402 15.1068)" class="st3 st4 st5 st6">Quickint</text>
</svg>
